<svg xmlns="http://www.w3.org/2000/svg" viewBox="0 0 48 48">
<path fill="#FFC107" d="M43.6 20.5H42V20H24v8h11.3C33.8 32.6 29.3 36 24 36c-6.6 0-12-5.4-12-12S17.4 12 24 12c3 0 5.7 1.1 7.8 3l5.7-5.7C34.1 6.1 29.3 4 24 4 12.9 4 4 12.9 4 24s8.9 20 20 20c11 0 19.8-8.1 19.8-20 0-1.3-.1-2.3-.2-3.5z"/>
<path fill="#FF3D00" d="M6.3 14.7l6.6 4.8C14.6 16.2 18.9 13 24 13c3 0 5.7 1.1 7.8 3l5.7-5.7C34.1 6.1 29.3 4 24 4 16.3 4 9.6 8.4 6.3 14.7z"/>
<path fill="#4CAF50" d="M24 44c5.2 0 9.9-2 13.3-5.3l-6.1-5c-2 1.4-4.5 2.3-7.2 2.3-5.3 0-9.8-3.4-11.4-8.2l-6.5 5C9.5 39.3 16.2 44 24 44z"/>
<path fill="#1976D2" d="M43.6 20.5H42V20H24v8h11.3c-1.1 3-3.3 5.4-6.1 6.9l6.1 5C39.8 36.3 44 30.8 44 24c0-1.3-.1-2.3-.4-3.5z"/>
</svg>